<?xml version="1.0" encoding="UTF-8" standalone="no"?>
<svg
   version="1.1"
   width="24"
   height="24"
   viewBox="0 0 24 24"
   id="svg4"
   sodipodi:docname="fat (human-handsup).svg"
   inkscape:version="1.1 (4674306aa2, 2021-06-05)"
   xmlns:inkscape="http://www.inkscape.org/namespaces/inkscape"
   xmlns:sodipodi="http://sodipodi.sourceforge.net/DTD/sodipodi-0.dtd"
   xmlns="http://www.w3.org/2000/svg"
   xmlns:svg="http://www.w3.org/2000/svg">
  <defs
     id="defs8" />
  <sodipodi:namedview
     id="namedview6"
     pagecolor="#ffffff"
     bordercolor="#666666"
     borderopacity="1.0"
     inkscape:pageshadow="2"
     inkscape:pageopacity="0.0"
     inkscape:pagecheckerboard="0"
     showgrid="false"
     inkscape:zoom="86.619048"
     inkscape:cx="11.995052"
     inkscape:cy="9.6572292"
     inkscape:window-width="3840"
     inkscape:window-height="2028"
     inkscape:window-x="3840"
     inkscape:window-y="27"
     inkscape:window-maximized="1"
     inkscape:current-layer="svg4" />
  <path
     id="path2"
     d="M 5 1 C 5 3.7 6.56 6.1603125 9 7.3203125 L 9 9.671875 A 3.9786112 2.7966785 0 0 0 8.0214844 11.5 A 3.9786112 2.7966785 0 0 0 9 13.328125 L 9 22 L 11 22 L 11 15 L 13 15 L 13 22 L 15 22 L 15 13.328125 A 3.9786112 2.7966785 0 0 0 15.978516 11.5 A 3.9786112 2.7966785 0 0 0 15 9.6640625 L 15 7.3105469 C 17.44 6.1605469 19 3.7 19 1 L 17 1 A 5 5 0 0 1 12 6 A 5 5 0 0 1 7 1 L 5 1 z M 12 1 C 10.89 1 10 1.89 10 3 C 10 4.11 10.89 5 12 5 C 13.11 5 14 4.11 14 3 C 14 1.89 13.11 1 12 1 z " />
</svg>
