<?xml version="1.0" encoding="UTF-8" standalone="no"?>
<svg
   version="1.1"
   width="24"
   height="24"
   viewBox="0 0 24 24"
   id="svg4"
   sodipodi:docname="fat2 (human-handsup).svg"
   inkscape:version="1.1 (517b1ac4cb, 2021-06-15)"
   xmlns:inkscape="http://www.inkscape.org/namespaces/inkscape"
   xmlns:sodipodi="http://sodipodi.sourceforge.net/DTD/sodipodi-0.dtd"
   xmlns="http://www.w3.org/2000/svg"
   xmlns:svg="http://www.w3.org/2000/svg">
  <defs
     id="defs8" />
  <sodipodi:namedview
     id="namedview6"
     pagecolor="#ffffff"
     bordercolor="#666666"
     borderopacity="1.0"
     inkscape:pageshadow="2"
     inkscape:pageopacity="0.0"
     inkscape:pagecheckerboard="0"
     showgrid="false"
     inkscape:zoom="36.375"
     inkscape:cx="11.986254"
     inkscape:cy="12"
     inkscape:window-width="3840"
     inkscape:window-height="2028"
     inkscape:window-x="3840"
     inkscape:window-y="27"
     inkscape:window-maximized="0"
     inkscape:current-layer="svg4" />
  <path
     id="path2"
     d="M 5 1 C 5 3.7 6.56 6.1603125 9 7.3203125 L 9 7.5273438 A 4.1375647 4.1375647 0 0 0 7.8632812 10.365234 A 4.1375647 4.1375647 0 0 0 9 13.201172 L 9 22 L 11 22 L 11 15 L 13 15 L 13 22 L 15 22 L 15 13.201172 A 4.1375647 4.1375647 0 0 0 16.136719 10.365234 A 4.1375647 4.1375647 0 0 0 15 7.5175781 L 15 7.3105469 C 17.44 6.1605469 19 3.7 19 1 L 17 1 A 5 5 0 0 1 12 6 A 5 5 0 0 1 7 1 L 5 1 z M 12 1 C 10.89 1 10 1.89 10 3 C 10 4.11 10.89 5 12 5 C 13.11 5 14 4.11 14 3 C 14 1.89 13.11 1 12 1 z " />
</svg>
