<?xml version="1.0" encoding="UTF-8" standalone="no"?>
<svg
   version="1.1"
   width="40"
   height="40"
   viewBox="0 0 40 40"
   id="svg4"
   sodipodi:docname="icon_as_path.svg"
   inkscape:version="1.1 (517b1ac4cb, 2021-06-15)"
   xmlns:inkscape="http://www.inkscape.org/namespaces/inkscape"
   xmlns:sodipodi="http://sodipodi.sourceforge.net/DTD/sodipodi-0.dtd"
   xmlns="http://www.w3.org/2000/svg"
   xmlns:svg="http://www.w3.org/2000/svg">
  <defs
     id="defs8">
    <rect
       x="-7.7791023"
       y="0.7362929"
       width="10.26631"
       height="21.421139"
       id="rect2170" />
  </defs>
  <sodipodi:namedview
     id="namedview6"
     pagecolor="#ffffff"
     bordercolor="#666666"
     borderopacity="1.0"
     inkscape:pageshadow="2"
     inkscape:pageopacity="0.0"
     inkscape:pagecheckerboard="0"
     showgrid="false"
     showguides="true"
     inkscape:guide-bbox="true"
     inkscape:zoom="21.804981"
     inkscape:cx="26.094955"
     inkscape:cy="22.90761"
     inkscape:window-width="1908"
     inkscape:window-height="2012"
     inkscape:window-x="5764"
     inkscape:window-y="35"
     inkscape:window-maximized="0"
     inkscape:current-layer="text3814-6"
     fit-margin-top="0"
     fit-margin-left="0"
     fit-margin-right="0"
     fit-margin-bottom="0"
     width="72.94612px" />
  <path
     d="m 19.502287,4.9080892 c -0.687142,0 -1.238094,0.5571422 -1.238094,1.2380951 0,0.687142 0.550952,1.238095 1.238094,1.238095 0.687145,0 1.238096,-0.550953 1.238096,-1.238095 A 1.2380952,1.2380952 0 0 0 19.502287,4.9080892 m -1.238094,3.0952371 c -0.167144,0 -0.309525,0.0681 -0.427143,0.173335 h -0.0061 l -3.280953,3.2871447 0.879049,0.872856 2.216189,-2.222381 v 7.79381 h 1.238095 v -4.333334 h 1.238096 v 4.333334 h 1.238096 v -7.79381 l 2.216188,2.222381 0.879048,-0.872856 -3.280953,-3.2871447 c -0.123857,-0.1052429 -0.266238,-0.173335 -0.43338,-0.173335"
     id="path2-9"
     style="fill:#4caf50;fill-opacity:1;stroke-width:0.619049" />
  <path
     id="path2"
     d="m 9.9811989,20.945384 c -0.7214998,0 -1.2999998,0.5785 -1.2999998,1.3 0,0.715 0.5785,1.3 1.2999998,1.3 a 1.3,1.3 0 0 0 1.3000001,-1.3 1.3,1.3 0 0 0 -1.3000001,-1.3 z m -5.8499998,3.25 v 1.3 h 3.9 v 0.771875 a 2.2815091,2.2815091 0 0 0 -0.331348,1.178125 2.2815091,2.2815091 0 0 0 0.331348,1.178125 v 5.321875 h 1.3 v -3.9 h 1.2999999 v 3.9 h 1.3 v -5.321875 a 2.2815091,2.2815091 0 0 0 0.331348,-1.178125 2.2815091,2.2815091 0 0 0 -0.331348,-1.183203 V 25.495384 H 15.8312 v -1.3 z"
     style="fill:#ff9800;fill-opacity:1;stroke-width:0.65" />
  <path
     id="path2-3"
     d="m 26.591982,20.945384 c 0,1.671429 0.965714,3.194479 2.47619,3.912574 v 0.128163 a 2.5613496,2.5613496 0 0 0 -0.703683,1.756789 2.5613496,2.5613496 0 0 0 0.703683,1.75558 v 5.446894 h 1.238096 V 29.61205 h 1.238095 v 4.333334 h 1.238095 V 28.49849 a 2.5613496,2.5613496 0 0 0 0.703683,-1.75558 2.5613496,2.5613496 0 0 0 -0.703683,-1.762835 v -0.128162 c 1.510476,-0.711905 2.47619,-2.2351 2.47619,-3.906529 h -1.238095 a 3.0952381,3.0952381 0 0 1 -3.095237,3.095238 3.0952381,3.0952381 0 0 1 -3.095239,-3.095238 z m 4.333334,0 c -0.687144,0 -1.238096,0.550952 -1.238096,1.238095 0,0.687143 0.550952,1.238095 1.238096,1.238095 0.687142,0 1.238095,-0.550952 1.238095,-1.238095 0,-0.687143 -0.550953,-1.238095 -1.238095,-1.238095 z"
     style="fill:#f44336;fill-opacity:1;stroke-width:0.619048" />
  <g
     aria-label="1"
     id="text3814"
     style="font-size:18.2231px;line-height:1.25;font-family:'Alegreya Sans';-inkscape-font-specification:'Alegreya Sans';letter-spacing:0px;word-spacing:0px;stroke-width:0.976238">
    <path
       d="M 11.412345,4.9081283 V 17.908104 H 9.2501316 V 7.4974458 L 6.0735461,8.5830017 V 6.758912 L 11.136507,4.9081283 Z"
       style="font-weight:500;font-family:Roboto;-inkscape-font-specification:'Roboto Medium'"
       id="path15" />
  </g>
  <g
     aria-label="2"
     id="text3814-6"
     style="font-size:18.0379px;line-height:1.25;font-family:'Alegreya Sans';-inkscape-font-specification:'Alegreya Sans';letter-spacing:0px;word-spacing:0px;stroke-width:0.966316">
    <path
       d="m 35.410193,16.190628 v 1.717476 h -8.631418 v -1.479672 l 4.174788,-4.544705 q 1.056908,-1.171407 1.435634,-1.867205 0.378725,-0.7046052 0.378725,-1.3563653 0,-0.8807569 -0.502031,-1.4532489 -0.493224,-0.5812995 -1.409211,-0.5812995 -1.092139,0 -1.638208,0.6693752 -0.546069,0.6605677 -0.546069,1.6910532 h -2.14024 q 0,-1.6822456 1.136177,-2.880075 1.136176,-1.1978293 3.214762,-1.1978293 1.92005,0 2.968151,0.960025 1.056908,0.960025 1.056908,2.5630025 0,1.1802142 -0.72222,2.3251981 -0.713413,1.136176 -1.858397,2.351621 l -2.880075,3.082649 z"
       style="font-weight:500;font-family:Roboto;-inkscape-font-specification:'Roboto Medium'"
       id="path18" />
  </g>
  <g
     aria-label="3"
     id="text3814-5"
     style="font-size:17.7968px;line-height:1.25;font-family:'Alegreya Sans';-inkscape-font-specification:'Alegreya Sans';letter-spacing:0px;word-spacing:0px;stroke-width:0.953398">
    <path
       d="m 20.173301,28.149262 v -1.66845 h 1.242648 q 1.08623,0 1.616311,-0.53877 0.53877,-0.54746 0.53877,-1.399065 0,-1.903076 -1.920456,-1.903076 -0.842915,0 -1.399065,0.477941 -0.55615,0.477942 -0.55615,1.294787 h -2.102942 q 0,-1.503343 1.12968,-2.485295 1.138369,-0.981953 2.893718,-0.981953 1.816177,0 2.937167,0.912434 1.12099,0.903744 1.12099,2.685162 0,0.747326 -0.486631,1.520723 -0.477942,0.764706 -1.459894,1.207888 1.164439,0.391043 1.65107,1.207888 0.486632,0.808156 0.486632,1.746659 0,1.781418 -1.216578,2.75468 -1.216579,0.964573 -3.032756,0.964573 -1.642381,0 -2.893718,-0.903744 -1.251338,-0.903743 -1.251338,-2.667782 h 2.111632 q 0,0.834225 0.56484,1.355616 0.56484,0.52139 1.503343,0.52139 0.981953,0 1.538103,-0.52139 0.56484,-0.530081 0.56484,-1.503343 0,-2.076873 -2.415777,-2.076873 z"
       style="font-weight:500;font-family:Roboto;-inkscape-font-specification:'Roboto Medium'"
       id="path21" />
  </g>
</svg>
