<?xml version="1.0" encoding="UTF-8" standalone="no"?>
<svg
   version="1.1"
   width="72.946121"
   height="41.118065"
   viewBox="0 0 72.946121 41.118065"
   id="svg4"
   sodipodi:docname="logo.svg"
   inkscape:version="1.1 (4674306aa2, 2021-06-05)"
   xmlns:inkscape="http://www.inkscape.org/namespaces/inkscape"
   xmlns:sodipodi="http://sodipodi.sourceforge.net/DTD/sodipodi-0.dtd"
   xmlns="http://www.w3.org/2000/svg"
   xmlns:svg="http://www.w3.org/2000/svg">
  <defs
     id="defs8">
    <rect
       x="-7.7791023"
       y="0.7362929"
       width="10.26631"
       height="21.421139"
       id="rect2170" />
  </defs>
  <sodipodi:namedview
     id="namedview6"
     pagecolor="#ffffff"
     bordercolor="#666666"
     borderopacity="1.0"
     inkscape:pageshadow="2"
     inkscape:pageopacity="0.0"
     inkscape:pagecheckerboard="0"
     showgrid="false"
     showguides="true"
     inkscape:guide-bbox="true"
     inkscape:zoom="21.804981"
     inkscape:cx="35.932157"
     inkscape:cy="22.90761"
     inkscape:window-width="3840"
     inkscape:window-height="2028"
     inkscape:window-x="3840"
     inkscape:window-y="27"
     inkscape:window-maximized="1"
     inkscape:current-layer="svg4"
     fit-margin-top="0"
     fit-margin-left="0"
     fit-margin-right="0"
     fit-margin-bottom="0">
    <sodipodi:guide
       position="10.739897,20.070184"
       orientation="0,-1"
       id="guide31542" />
    <sodipodi:guide
       position="11.026743,41.095984"
       orientation="0,-1"
       id="guide31544" />
  </sodipodi:namedview>
  <path
     id="path2-3"
     d="m 49.52274,4.3124353 c -1.11,0 -2,0.89 -2,2 0,1.1 0.89,2.0000005 2,2.0000005 a 2,2 0 0 0 2,-2.0000005 2,2 0 0 0 -2,-2 z m -9,5.0000003 v 2.0000004 h 6 v 1.853514 a 3.7029119,1.9652346 0 0 0 -0.703125,1.146485 3.7029119,1.9652346 0 0 0 0.703125,1.146484 v 8.853516 h 2 v -6 h 2 v 6 h 2 v -8.853516 a 3.7029119,1.9652346 0 0 0 0.703125,-1.146484 3.7029119,1.9652346 0 0 0 -0.703125,-1.150392 v -1.849607 h 6 V 9.3124356 Z"
     style="fill:#ff9800;fill-opacity:1" />
  <text
     xml:space="preserve"
     style="font-style:normal;font-variant:normal;font-weight:normal;font-stretch:normal;font-size:29.1254px;line-height:1.25;font-family:'Alegreya Sans';-inkscape-font-specification:'Alegreya Sans';letter-spacing:0px;word-spacing:0px;fill:#000000;fill-opacity:1;stroke:none;stroke-width:0.910167"
     x="-2.5921607"
     y="21.009491"
     id="text20692"><tspan
       sodipodi:role="line"
       id="tspan20690"
       x="-2.5921607"
       y="21.009491"
       style="font-style:normal;font-variant:normal;font-weight:normal;font-stretch:normal;font-size:29.1254px;font-family:'Noto Sans';-inkscape-font-specification:'Noto Sans';stroke-width:0.910167">1</tspan></text>
  <text
     xml:space="preserve"
     style="font-style:normal;font-variant:normal;font-weight:normal;font-stretch:normal;font-size:28.9455px;line-height:1.25;font-family:'Alegreya Sans';-inkscape-font-specification:'Alegreya Sans';letter-spacing:0px;word-spacing:0px;fill:#000000;fill-opacity:1;stroke:none;stroke-width:0.904544"
     x="23.130604"
     y="21.014776"
     id="text20692-2"
     transform="scale(1.0085651,0.99150763)"><tspan
       sodipodi:role="line"
       id="tspan20690-9"
       x="23.130604"
       y="21.014776"
       style="font-style:normal;font-variant:normal;font-weight:normal;font-stretch:normal;font-size:28.9455px;font-family:'Noto Sans';-inkscape-font-specification:'Noto Sans';stroke-width:0.904544">2</tspan></text>
  <text
     xml:space="preserve"
     style="font-style:normal;font-variant:normal;font-weight:normal;font-stretch:normal;font-size:28.6792px;line-height:1.25;font-family:'Alegreya Sans';-inkscape-font-specification:'Alegreya Sans';letter-spacing:0px;word-spacing:0px;fill:#000000;fill-opacity:1;stroke:none;stroke-width:0.896226"
     x="58.176334"
     y="20.763741"
     id="text20692-3"><tspan
       sodipodi:role="line"
       id="tspan20690-90"
       x="58.176334"
       y="20.763741"
       style="font-style:normal;font-variant:normal;font-weight:normal;font-stretch:normal;font-size:28.6792px;font-family:'Noto Sans';-inkscape-font-specification:'Noto Sans';stroke-width:0.896226">3</tspan></text>
  <text
     xml:space="preserve"
     style="font-style:normal;font-variant:normal;font-weight:normal;font-stretch:normal;font-size:17.2915px;line-height:1.25;font-family:'Alegreya Sans';-inkscape-font-specification:'Alegreya Sans';letter-spacing:0px;word-spacing:0px;fill:#000000;fill-opacity:1;stroke:none;stroke-width:0.540357"
     x="2.4774296"
     y="40.882492"
     id="text20692-8"><tspan
       sodipodi:role="line"
       id="tspan20690-5"
       x="2.4774296"
       y="40.882492"
       style="font-style:normal;font-variant:normal;font-weight:normal;font-stretch:normal;font-size:17.2915px;font-family:'Noto Sans';-inkscape-font-specification:'Noto Sans';stroke-width:0.540357">WE  GH</tspan></text>
  <path
     id="path2-6-0"
     d="m 63.626262,28.448248 c 0,1.628977 0.941186,3.113343 2.413299,3.8132 v 1.418757 a 2.4003941,1.6873051 0 0 0 -0.590363,1.102952 2.4003941,1.6873051 0 0 0 0.590363,1.102954 v 5.231955 h 1.20665 v -4.223272 h 1.206649 v 4.223272 h 1.206649 v -5.231955 a 2.4003941,1.6873051 0 0 0 0.590363,-1.102954 2.4003941,1.6873051 0 0 0 -0.590363,-1.107665 v -1.419936 c 1.472111,-0.693823 2.4133,-2.178331 2.4133,-3.807308 h -1.206651 a 3.0166233,3.0166233 0 0 1 -3.016623,3.016624 3.0166233,3.0166233 0 0 1 -3.016624,-3.016624 z m 4.223273,0 c -0.66969,0 -1.206649,0.536959 -1.206649,1.206649 0,0.669691 0.536959,1.20665 1.206649,1.20665 0.66969,0 1.206648,-0.536959 1.206648,-1.20665 0,-0.66969 -0.536958,-1.206649 -1.206648,-1.206649 z"
     style="fill:#f44336;fill-opacity:1;stroke-width:0.603325" />
  <path
     d="m 32.958595,28.683923 c -0.649514,0 -1.170295,0.526633 -1.170295,1.170296 0,0.649514 0.520781,1.170296 1.170295,1.170296 0.649516,0 1.170297,-0.520782 1.170297,-1.170296 a 1.1702962,1.1702962 0 0 0 -1.170297,-1.170296 m -1.170295,2.92574 c -0.157991,0 -0.292575,0.06437 -0.403753,0.163843 h -0.0058 l -3.101286,3.107136 0.830911,0.825058 2.09483,-2.100682 v 7.367016 h 1.170296 v -4.096038 h 1.170297 v 4.096038 h 1.170297 v -7.367016 l 2.094829,2.100682 0.830911,-0.825058 -3.101286,-3.107136 c -0.117074,-0.09948 -0.251659,-0.163843 -0.409648,-0.163843"
     id="path2-9"
     style="fill:#4caf50;fill-opacity:1;stroke-width:0.585149" />
  <text
     xml:space="preserve"
     style="font-style:normal;font-variant:normal;font-weight:normal;font-stretch:normal;font-size:34.3976px;line-height:1.25;font-family:'Alegreya Sans';-inkscape-font-specification:'Alegreya Sans';letter-spacing:0px;word-spacing:0px;fill:#000000;fill-opacity:1;stroke:none;stroke-width:1.07492"
     x="9.9827671"
     y="21.428568"
     id="text20692-6"
     transform="scale(1.1810164,0.8467283)"><tspan
       sodipodi:role="line"
       id="tspan20690-3"
       x="9.9827671"
       y="21.428568"
       style="font-style:normal;font-variant:normal;font-weight:normal;font-stretch:normal;font-size:34.3976px;font-family:'Noto Sans';-inkscape-font-specification:'Noto Sans';stroke-width:1.07492">-</tspan></text>
</svg>
