<?xml version="1.0" encoding="UTF-8" standalone="no"?>
<svg
   version="1.1"
   width="72.946121"
   height="41.118065"
   viewBox="0 0 72.946121 41.118065"
   id="svg4"
   sodipodi:docname="logo_as_paths.svg"
   inkscape:version="1.1 (4674306aa2, 2021-06-05)"
   xmlns:inkscape="http://www.inkscape.org/namespaces/inkscape"
   xmlns:sodipodi="http://sodipodi.sourceforge.net/DTD/sodipodi-0.dtd"
   xmlns="http://www.w3.org/2000/svg"
   xmlns:svg="http://www.w3.org/2000/svg">
  <defs
     id="defs8">
    <rect
       x="-7.7791023"
       y="0.7362929"
       width="10.26631"
       height="21.421139"
       id="rect2170" />
  </defs>
  <sodipodi:namedview
     id="namedview6"
     pagecolor="#ffffff"
     bordercolor="#666666"
     borderopacity="1.0"
     inkscape:pageshadow="2"
     inkscape:pageopacity="0.0"
     inkscape:pagecheckerboard="0"
     showgrid="false"
     showguides="true"
     inkscape:guide-bbox="true"
     inkscape:zoom="18.040712"
     inkscape:cx="36.473061"
     inkscape:cy="20.564598"
     inkscape:window-width="1908"
     inkscape:window-height="1031"
     inkscape:window-x="1924"
     inkscape:window-y="8"
     inkscape:window-maximized="0"
     inkscape:current-layer="svg4"
     fit-margin-top="0"
     fit-margin-left="0"
     fit-margin-right="0"
     fit-margin-bottom="0">
    <sodipodi:guide
       position="10.739897,20.070184"
       orientation="0,-1"
       id="guide31542" />
    <sodipodi:guide
       position="11.026743,41.095984"
       orientation="0,-1"
       id="guide31544" />
  </sodipodi:namedview>
  <path
     id="path2-3"
     d="m 49.52274,4.3124353 c -1.11,0 -2,0.89 -2,2 0,1.1 0.89,2.0000005 2,2.0000005 a 2,2 0 0 0 2,-2.0000005 2,2 0 0 0 -2,-2 z m -9,5.0000003 v 2.0000004 h 6 v 1.853514 a 3.7029119,1.9652346 0 0 0 -0.703125,1.146485 3.7029119,1.9652346 0 0 0 0.703125,1.146484 v 8.853516 h 2 v -6 h 2 v 6 h 2 v -8.853516 a 3.7029119,1.9652346 0 0 0 0.703125,-1.146484 3.7029119,1.9652346 0 0 0 -0.703125,-1.150392 v -1.849607 h 6 V 9.3124356 Z"
     style="fill:#ff9800;fill-opacity:1" />
  <g
     aria-label="1"
     id="text20692"
     style="font-size:29.1254px;line-height:1.25;font-family:'Alegreya Sans';-inkscape-font-specification:'Alegreya Sans';letter-spacing:0px;word-spacing:0px;stroke-width:0.910167">
    <path
       d="M 7.7473565,21.009491 H 5.242572 V 6.4759161 q 0,-1.2523922 0.029125,-2.0096526 Q 5.3008228,3.709003 5.3590736,2.8934918 4.8930672,3.3594982 4.514437,3.6798776 4.1358068,4.000257 3.5532988,4.4953889 L 1.3397684,6.3011637 -5.3405762e-8,4.5827651 5.6212023,0.21395498 h 2.1261542 z"
       style="font-family:'Noto Sans';-inkscape-font-specification:'Noto Sans'"
       id="path39" />
  </g>
  <g
     aria-label="2"
     transform="scale(1.0085651,0.99150763)"
     id="text20692-2"
     style="font-size:28.9455px;line-height:1.25;font-family:'Alegreya Sans';-inkscape-font-specification:'Alegreya Sans';letter-spacing:0px;word-spacing:0px;stroke-width:0.904544">
    <path
       d="M 38.182263,21.014776 H 24.519988 v -2.113021 l 5.412808,-5.4707 q 1.563057,-1.563057 2.634041,-2.778768 1.070983,-1.2157105 1.620948,-2.3735305 0.549964,-1.1867655 0.549964,-2.5761495 0,-1.7077844 -1.013092,-2.5761494 -1.013093,-0.8973105 -2.634041,-0.8973105 -1.505166,0 -2.662986,0.521019 -1.128874,0.521019 -2.31564,1.447275 L 24.751552,2.4896566 q 1.215711,-1.0130925 2.778768,-1.70778446 1.592002,-0.72363749 3.560296,-0.72363749 2.89455,0 4.573389,1.47622045 1.678839,1.447275 1.678839,4.0234244 0,1.620948 -0.665746,3.0392775 -0.665747,1.418329 -1.852512,2.807713 -1.186766,1.360439 -2.778768,2.923496 l -4.31288,4.254988 v 0.115782 h 10.449325 z"
       style="font-family:'Noto Sans';-inkscape-font-specification:'Noto Sans'"
       id="path36" />
  </g>
  <g
     aria-label="3"
     id="text20692-3"
     style="font-size:28.6792px;line-height:1.25;font-family:'Alegreya Sans';-inkscape-font-specification:'Alegreya Sans';letter-spacing:0px;word-spacing:0px;stroke-width:0.896226">
    <path
       d="m 72.31518,5.0762186 q 0,2.0649023 -1.147168,3.2981079 -1.147168,1.2045263 -3.097354,1.6060351 v 0.1147164 q 2.466411,0.286792 3.670938,1.548677 1.204526,1.261885 1.204526,3.298108 0,1.77811 -0.831697,3.183391 -0.831697,1.376602 -2.581128,2.15094 -1.720752,0.774339 -4.445276,0.774339 -1.606035,0 -2.982636,-0.258113 -1.376602,-0.229434 -2.638487,-0.860376 v -2.351695 q 1.290564,0.630943 2.781883,1.003772 1.491318,0.344151 2.86792,0.344151 2.753203,0 3.957729,-1.061131 1.233206,-1.089809 1.233206,-2.982636 0,-1.921507 -1.519998,-2.753203 -1.491318,-0.860376 -4.215842,-0.860376 H 62.592931 V 9.1199857 h 2.007544 q 2.52377,0 3.814334,-1.0611304 1.319243,-1.0611304 1.319243,-2.8105615 0,-1.4913184 -1.003772,-2.294336 -1.003772,-0.8316968 -2.724524,-0.8316968 -1.663394,0 -2.839241,0.4875464 Q 61.990668,3.0973538 60.8435,3.843013 L 59.581615,2.122261 Q 60.671425,1.2618851 62.27746,0.63094269 63.912174,3.0517578e-7 65.977077,3.0517578e-7 q 3.21207,0 4.760747,1.43395999482422 1.577356,1.4339599 1.577356,3.6422583 z"
       style="font-family:'Noto Sans';-inkscape-font-specification:'Noto Sans'"
       id="path33" />
  </g>
  <g
     aria-label="WE  GH"
     id="text20692-8"
     style="font-size:17.2915px;line-height:1.25;font-family:'Alegreya Sans';-inkscape-font-specification:'Alegreya Sans';letter-spacing:0px;word-spacing:0px;stroke-width:0.540357">
    <path
       d="M 18.333735,28.536361 15.04835,40.882492 H 13.474824 L 11.071305,32.79007 q -0.138332,-0.501453 -0.276664,-1.002907 -0.138332,-0.501453 -0.224789,-0.881866 -0.08646,-0.397705 -0.121041,-0.553328 -0.01729,0.224789 -0.190206,0.968324 -0.155624,0.726243 -0.3977048,1.521652 L 7.5265477,40.882492 H 5.9530211 L 2.6849276,28.536361 h 1.625401 l 1.9193565,7.539094 q 0.207498,0.795409 0.3458301,1.538944 0.1556235,0.743534 0.242081,1.400611 0.086458,-0.674368 0.2593725,-1.469777 0.172915,-0.795409 0.3977045,-1.556235 l 2.178729,-7.452637 h 1.6081098 l 2.265186,7.504511 q 0.242081,0.795409 0.414996,1.590818 0.172915,0.778118 0.259373,1.38332 0.08646,-0.639785 0.242081,-1.38332 0.155623,-0.760826 0.363121,-1.573526 l 1.902065,-7.521803 z"
       style="font-family:'Noto Sans';-inkscape-font-specification:'Noto Sans'"
       id="path24" />
    <path
       d="M 27.135082,40.882492 H 20.235773 V 28.536361 h 6.899309 v 1.366029 h -5.343074 v 3.856004 h 5.031827 v 1.348737 h -5.031827 v 4.409333 h 5.343074 z"
       style="font-family:'Noto Sans';-inkscape-font-specification:'Noto Sans'"
       id="path26" />
    <path
       d="m 44.201731,34.363597 h 4.271 v 6.052025 q -1.002907,0.328538 -2.023105,0.484162 -1.020199,0.155623 -2.317061,0.155623 -1.919357,0 -3.233511,-0.760826 -1.314154,-0.778117 -2.005814,-2.19602 -0.674368,-1.435195 -0.674368,-3.389134 0,-1.936648 0.760826,-3.354551 0.760826,-1.417903 2.178729,-2.196021 1.435194,-0.795409 3.4583,-0.795409 1.03749,0 1.953939,0.190207 0.933741,0.190206 1.72915,0.536036 l -0.587911,1.348737 q -0.657077,-0.293955 -1.487069,-0.501453 -0.8127,-0.207498 -1.694567,-0.207498 -2.213312,0 -3.4583,1.331445 -1.227696,1.331446 -1.227696,3.648507 0,1.469777 0.46687,2.611016 0.484162,1.123948 1.504361,1.763733 1.020198,0.622494 2.680182,0.622494 0.812701,0 1.38332,-0.08646 0.57062,-0.08646 1.03749,-0.207498 v -3.665798 h -2.714765 z"
       style="font-family:'Noto Sans';-inkscape-font-specification:'Noto Sans'"
       id="path28" />
    <path
       d="m 60.870713,40.882492 h -1.556235 v -5.758069 h -6.328689 v 5.758069 H 51.429554 V 28.536361 h 1.556235 v 5.222033 h 6.328689 v -5.222033 h 1.556235 z"
       style="font-family:'Noto Sans';-inkscape-font-specification:'Noto Sans'"
       id="path30" />
  </g>
  <path
     id="path2-6-0"
     d="m 63.626262,28.448248 c 0,1.628977 0.941186,3.113343 2.413299,3.8132 v 1.418757 a 2.4003941,1.6873051 0 0 0 -0.590363,1.102952 2.4003941,1.6873051 0 0 0 0.590363,1.102954 v 5.231955 h 1.20665 v -4.223272 h 1.206649 v 4.223272 h 1.206649 v -5.231955 a 2.4003941,1.6873051 0 0 0 0.590363,-1.102954 2.4003941,1.6873051 0 0 0 -0.590363,-1.107665 v -1.419936 c 1.472111,-0.693823 2.4133,-2.178331 2.4133,-3.807308 h -1.206651 a 3.0166233,3.0166233 0 0 1 -3.016623,3.016624 3.0166233,3.0166233 0 0 1 -3.016624,-3.016624 z m 4.223273,0 c -0.66969,0 -1.206649,0.536959 -1.206649,1.206649 0,0.669691 0.536959,1.20665 1.206649,1.20665 0.66969,0 1.206648,-0.536959 1.206648,-1.20665 0,-0.66969 -0.536958,-1.206649 -1.206648,-1.206649 z"
     style="fill:#f44336;fill-opacity:1;stroke-width:0.603325" />
  <path
     d="m 32.958595,28.683923 c -0.649514,0 -1.170295,0.526633 -1.170295,1.170296 0,0.649514 0.520781,1.170296 1.170295,1.170296 0.649516,0 1.170297,-0.520782 1.170297,-1.170296 a 1.1702962,1.1702962 0 0 0 -1.170297,-1.170296 m -1.170295,2.92574 c -0.157991,0 -0.292575,0.06437 -0.403753,0.163843 h -0.0058 l -3.101286,3.107136 0.830911,0.825058 2.09483,-2.100682 v 7.367016 h 1.170296 v -4.096038 h 1.170297 v 4.096038 h 1.170297 v -7.367016 l 2.094829,2.100682 0.830911,-0.825058 -3.101286,-3.107136 c -0.117074,-0.09948 -0.251659,-0.163843 -0.409648,-0.163843"
     id="path2-9"
     style="fill:#4caf50;fill-opacity:1;stroke-width:0.585149" />
  <g
     aria-label="-"
     transform="scale(1.1810164,0.8467283)"
     id="text20692-6"
     style="font-size:34.3976px;line-height:1.25;font-family:'Alegreya Sans';-inkscape-font-specification:'Alegreya Sans';letter-spacing:0px;word-spacing:0px;stroke-width:1.07492">
    <path
       d="m 11.358671,13.551518 v -2.683013 h 8.324219 v 2.683013 z"
       style="font-family:'Noto Sans';-inkscape-font-specification:'Noto Sans'"
       id="path21" />
  </g>
</svg>
